<svg xmlns="http://www.w3.org/2000/svg" xmlns:xlink="http://www.w3.org/1999/xlink" xmlns:lucid="lucid" width="1562" height="502"><g transform="translate(-99 -39)" lucid:page-tab-id="YGcM5DNywbTK"><g filter="url(#a)"><path d="M320 100h900v147.6H320z" fill-opacity="0"/><path d="M334 100h12m8 0h12m8 0h12m8 0h12m8 0h12m8 0h12m8 0h12m8 0h12m8 0h12m8 0h12m8 0h12m8 0h12m8 0h12m8 0h12m8 0h12m8 0h12m8 0h12m8 0h12m8 0h12m8 0h12m8 0h12m8 0h12m8 0h12m8 0h12m8 0h12m8 0h12m8 0h12m8 0h12m8 0h12m8 0h12m8 0h12m8 0h12m8 0h12m8 0h12m8 0h12m8 0h12m8 0h12m8 0h12m8 0h12m8 0h12m8 0h12m8 0h12m8 0h12m8 0h12m8 0h6v6.33m0 8.43v12.65m0 8.45v12.65m0 8.43v12.65m0 8.44v12.65m0 8.43v12.65m0 8.44v12.64m0 8.43v6.33h-6m-8 0h-12m-8 0h-12m-8 0h-12m-8 0h-12m-8 0h-12m-8 0h-12m-8 0h-12m-8 0h-12m-8 0h-12m-8 0h-12m-8 0h-12m-8 0h-12m-8 0h-12m-8 0h-12m-8 0h-12m-8 0h-12m-8 0h-12m-8 0h-12m-8 0h-12m-8 0h-12m-8 0h-12m-8 0h-12m-8 0h-12m-8 0h-12m-8 0h-12m-8 0h-12m-8 0h-12m-8 0h-12m-8 0h-12m-8 0h-12m-8 0h-12m-8 0h-12m-8 0h-12m-8 0h-12m-8 0h-12m-8 0h-12m-8 0h-12m-8 0h-12m-8 0h-12m-8 0h-12m-8 0h-12m-8 0h-12m-8 0h-12m-8 0h-12m-8 0h-6v-6.33m0-8.43V220.2m0-8.45V199.1m0-8.43v-12.65m0-8.44v-12.65m0-8.43v-12.65m0-8.44v-12.64m0-8.43V100h6" stroke="#3d4752" stroke-width="4" fill="none"/></g><g filter="url(#b)"><path d="M650 60h240v45H650z" fill="none"/><use xlink:href="#c" transform="matrix(1,0,0,1,650,60) translate(51.04938271604938 26.944444444444443)"/><use xlink:href="#d" transform="matrix(1,0,0,1,650,60) translate(105.18518518518519 26.944444444444443)"/></g><g filter="url(#e)"><path d="M260.32 122.8c19.37 0 35.08 21.76 35.08 48.6S279.7 220 260.32 220H155.08C135.7 220 120 198.24 120 171.4s15.7-48.6 35.08-48.6z" stroke="#3d4752" stroke-width="4" fill="#ffdba9"/><use xlink:href="#f" transform="matrix(1,0,0,1,135,137.80000000000007) translate(43.37037037037037 21.733333333333334)"/><use xlink:href="#g" transform="matrix(1,0,0,1,135,137.80000000000007) translate(33.29629629629629 56.93333333333334)"/></g><g filter="url(#h)"><path d="M360 130.8c0-4.42 3.58-8 8-8h144c4.42 0 8 3.58 8 8V212c0 4.42-3.58 8-8 8H368c-4.42 0-8-3.58-8-8z" stroke="#3d4752" stroke-width="4" fill="#c1e4f7"/><use xlink:href="#i" transform="matrix(1,0,0,1,375,137.8) translate(44.79629629629629 39.333333333333336)"/></g><g filter="url(#j)"><path d="M564.6 130.8c0-4.42 3.58-8 8-8H752c4.42 0 8 3.58 8 8V212c0 4.42-3.58 8-8 8H572.6c-4.42 0-8-3.58-8-8z" stroke="#3d4752" stroke-width="4" fill="#c1e4f7"/><use xlink:href="#k" transform="matrix(1,0,0,1,579.599790325986,137.80000000000007) translate(29.703703703703688 39.333333333333336)"/></g><g filter="url(#j)"><path d="M804.6 130.8c0-4.42 3.58-8 8-8H992c4.42 0 8 3.58 8 8V212c0 4.42-3.58 8-8 8H812.6c-4.42 0-8-3.58-8-8z" stroke="#3d4752" stroke-width="4" fill="#c1e4f7"/><use xlink:href="#l" transform="matrix(1,0,0,1,819.599790325986,137.80000000000007) translate(35.925925925925924 39.333333333333336)"/></g><g filter="url(#h)"><path d="M1044.6 130.8c0-4.42 3.58-8 8-8h144c4.42 0 8 3.58 8 8V212c0 4.42-3.58 8-8 8h-144c-4.42 0-8-3.58-8-8z" stroke="#3d4752" stroke-width="4" fill="#c1e4f7"/><use xlink:href="#m" transform="matrix(1,0,0,1,1059.599790325986,137.80000000000007) translate(38.83333333333333 39.333333333333336)"/></g><g filter="url(#h)"><path d="M1260 130.8c0-4.42 3.58-8 8-8h144c4.42 0 8 3.58 8 8V212c0 4.42-3.58 8-8 8h-144c-4.42 0-8-3.58-8-8z" stroke="#3d4752" stroke-width="4" fill="#c7e8ac"/><use xlink:href="#n" transform="matrix(1,0,0,1,1275,137.80000000000007) translate(30.759259259259252 39.333333333333336)"/></g><g filter="url(#e)"><path d="M1604.92 122.8c19.37 0 35.08 21.76 35.08 48.6s-15.7 48.6-35.08 48.6h-105.24c-19.37 0-35.08-21.76-35.08-48.6s15.7-48.6 35.08-48.6z" stroke="#3d4752" stroke-width="4" fill="#ffdba9"/><use xlink:href="#o" transform="matrix(1,0,0,1,1479.599790325986,137.80000000000007) translate(33.074074074074076 21.733333333333334)"/><use xlink:href="#p" transform="matrix(1,0,0,1,1479.599790325986,137.80000000000007) translate(39.96296296296296 56.93333333333334)"/></g><path d="M299.4 171.4h35.86" stroke="#494949" stroke-width="4" fill="none"/><path d="M299.45 173.4h-2.15l.1-1.96-.03-2.02v-.02h2.08z" fill="#494949"/><path d="M351.53 171.4l-14.27 4.64v-9.28z" stroke="#494949" stroke-width="4" fill="#494949"/><path d="M524 171.4h15.86" stroke="#494949" stroke-width="4" fill="none"/><path d="M524.05 173.4H522v-4h2.05z" fill="#494949"/><path d="M556.13 171.4l-14.27 4.64v-9.28z" stroke="#494949" stroke-width="4" fill="#494949"/><path d="M764 171.4h15.86" stroke="#494949" stroke-width="4" fill="none"/><path d="M764.05 173.4H762v-4h2.05z" fill="#494949"/><path d="M796.13 171.4l-14.27 4.64v-9.28z" stroke="#494949" stroke-width="4" fill="#494949"/><path d="M1004 171.4h15.86" stroke="#494949" stroke-width="4" fill="none"/><path d="M1004.05 173.4H1002v-4h2.05z" fill="#494949"/><path d="M1036.13 171.4l-14.27 4.64v-9.28z" stroke="#494949" stroke-width="4" fill="#494949"/><path d="M1424 171.4h15.86" stroke="#494949" stroke-width="4" fill="none"/><path d="M1424.05 173.4H1422v-4h2.05z" fill="#494949"/><path d="M1456.13 171.4l-14.27 4.64v-9.28z" stroke="#494949" stroke-width="4" fill="#494949"/><path d="M1208.6 171.4h26.66" stroke="#494949" stroke-width="4" fill="none"/><path d="M1208.65 173.4h-2.05v-4h2.05z" fill="#494949"/><path d="M1251.53 171.4l-14.27 4.64v-9.28z" stroke="#494949" stroke-width="4" fill="#494949"/><g filter="url(#q)"><path d="M720 308c0-4.42 3.58-8 8-8h144c4.42 0 8 3.58 8 8v44c0 4.42-3.58 8-8 8H728c-4.42 0-8-3.58-8-8z" stroke="#3d4752" stroke-width="4" fill="#c7e8ac"/><use xlink:href="#r" transform="matrix(1,0,0,1,735,315) translate(8.123456790123441 20.38888888888889)"/><use xlink:href="#s" transform="matrix(1,0,0,1,735,315) translate(109.2962962962963 20.38888888888889)"/></g><g filter="url(#q)"><path d="M820 388c0-4.42 3.58-8 8-8h144c4.42 0 8 3.58 8 8v44c0 4.42-3.58 8-8 8H828c-4.42 0-8-3.58-8-8z" stroke="#3d4752" stroke-width="4" fill="#c7e8ac"/><use xlink:href="#r" transform="matrix(1,0,0,1,835,395) translate(8.123456790123441 20.38888888888889)"/><use xlink:href="#t" transform="matrix(1,0,0,1,835,395) translate(109.2962962962963 20.38888888888889)"/></g><g filter="url(#q)"><path d="M940 468c0-4.42 3.58-8 8-8h144c4.42 0 8 3.58 8 8v44c0 4.42-3.58 8-8 8H948c-4.42 0-8-3.58-8-8z" stroke="#3d4752" stroke-width="4" fill="#c7e8ac"/><use xlink:href="#u" transform="matrix(1,0,0,1,955,475) translate(32.22839506172839 20.38888888888889)"/><use xlink:href="#v" transform="matrix(1,0,0,1,955,475) translate(59.388888888888886 20.38888888888889)"/></g><path d="M776 364v47.3h19.26" stroke="#494949" stroke-width="4" fill="none"/><path d="M778 364.05h-4V362h4z" fill="#494949"/><path d="M811.53 411.3l-14.27 4.64v-9.28z" stroke="#494949" stroke-width="4" fill="#494949"/><path d="M900 444v46h15.26" stroke="#494949" stroke-width="4" fill="none"/><path d="M902 444.05h-4V442h4z" fill="#494949"/><path d="M931.53 490l-14.27 4.64v-9.28z" stroke="#494949" stroke-width="4" fill="#494949"/><path d="M846 224v36h-46v15.26" stroke="#494949" stroke-width="4" fill="none"/><path d="M848 224.05h-4V222h4z" fill="#494949"/><path d="M800 291.53l-4.64-14.27h9.28z" stroke="#494949" stroke-width="4" fill="#494949"/><path d="M1020 456V300h-70v-55.26" stroke="#494949" stroke-width="4" fill="none"/><path d="M1022 458h-4v-2.05h4z" fill="#494949"/><path d="M950 228.47l4.64 14.27h-9.28z" stroke="#494949" stroke-width="4" fill="#494949"/><defs><filter id="a" filterUnits="objectBoundingBox" x="-.01" y="-.03" width="1.02" height="1.14"><feOffset result="offOut" in="SourceAlpha" dy="6"/><feGaussianBlur result="blurOut" in="offOut" stdDeviation="5"/><feColorMatrix result="colorOut" in="blurOut" values="0 0 0 0 0 0 0 0 0 0 0 0 0 0 0 0 0 0 0.16862745098039217 0"/><feBlend in="SourceGraphic" in2="colorOut"/></filter><path fill="#3d4752" d="M63-220v92h138v28H63V0H30v-248h175v28H63" id="w"/><path fill="#3d4752" d="M24-231v-30h32v30H24zM24 0v-190h32V0H24" id="x"/><path fill="#3d4752" d="M100-194c63 0 86 42 84 106H49c0 40 14 67 53 68 26 1 43-12 49-29l28 8c-11 28-37 45-77 45C44 4 14-33 15-96c1-61 26-98 85-98zm52 81c6-60-76-77-97-28-3 7-6 17-6 28h103" id="y"/><path fill="#3d4752" d="M24 0v-261h32V0H24" id="z"/><path fill="#3d4752" d="M85-194c31 0 48 13 60 33l-1-100h32l1 261h-30c-2-10 0-23-3-31C134-8 116 4 85 4 32 4 16-35 15-94c0-66 23-100 70-100zm9 24c-40 0-46 34-46 75 0 40 6 74 45 74 42 0 51-32 51-76 0-42-9-74-50-73" id="A"/><g id="c"><use transform="matrix(0.06172839506172839,0,0,0.06172839506172839,0,0)" xlink:href="#w"/><use transform="matrix(0.06172839506172839,0,0,0.06172839506172839,13.518518518518517,0)" xlink:href="#x"/><use transform="matrix(0.06172839506172839,0,0,0.06172839506172839,18.39506172839506,0)" xlink:href="#y"/><use transform="matrix(0.06172839506172839,0,0,0.06172839506172839,30.74074074074074,0)" xlink:href="#z"/><use transform="matrix(0.06172839506172839,0,0,0.06172839506172839,35.617283950617285,0)" xlink:href="#A"/></g><path fill="#3d4752" d="M117-194c89-4 53 116 60 194h-32v-121c0-31-8-49-39-48C34-167 62-67 57 0H25l-1-190h30c1 10-1 24 2 32 11-22 29-35 61-36" id="B"/><path fill="#3d4752" d="M59-47c-2 24 18 29 38 22v24C64 9 27 4 27-40v-127H5v-23h24l9-43h21v43h35v23H59v120" id="C"/><path fill="#3d4752" d="M114-163C36-179 61-72 57 0H25l-1-190h30c1 12-1 29 2 39 6-27 23-49 58-41v29" id="D"/><path fill="#3d4752" d="M141-36C126-15 110 5 73 4 37 3 15-17 15-53c-1-64 63-63 125-63 3-35-9-54-41-54-24 1-41 7-42 31l-33-3c5-37 33-52 76-52 45 0 72 20 72 64v82c-1 20 7 32 28 27v20c-31 9-61-2-59-35zM48-53c0 20 12 33 32 33 41-3 63-29 60-74-43 2-92-5-92 41" id="E"/><path fill="#3d4752" d="M135-143c-3-34-86-38-87 0 15 53 115 12 119 90S17 21 10-45l28-5c4 36 97 45 98 0-10-56-113-15-118-90-4-57 82-63 122-42 12 7 21 19 24 35" id="F"/><g id="d"><use transform="matrix(0.06172839506172839,0,0,0.06172839506172839,0,0)" xlink:href="#x"/><use transform="matrix(0.06172839506172839,0,0,0.06172839506172839,4.876543209876543,0)" xlink:href="#B"/><use transform="matrix(0.06172839506172839,0,0,0.06172839506172839,17.22222222222222,0)" xlink:href="#C"/><use transform="matrix(0.06172839506172839,0,0,0.06172839506172839,23.39506172839506,0)" xlink:href="#y"/><use transform="matrix(0.06172839506172839,0,0,0.06172839506172839,35.74074074074074,0)" xlink:href="#D"/><use transform="matrix(0.06172839506172839,0,0,0.06172839506172839,43.08641975308642,0)" xlink:href="#B"/><use transform="matrix(0.06172839506172839,0,0,0.06172839506172839,55.432098765432094,0)" xlink:href="#E"/><use transform="matrix(0.06172839506172839,0,0,0.06172839506172839,67.77777777777777,0)" xlink:href="#z"/><use transform="matrix(0.06172839506172839,0,0,0.06172839506172839,72.65432098765432,0)" xlink:href="#F"/></g><filter id="b" filterUnits="objectBoundingBox" x="-.04" y="-.09" width="1.08" height="1.44"><feOffset result="offOut" in="SourceAlpha" dy="6"/><feGaussianBlur result="blurOut" in="offOut" stdDeviation="5"/><feColorMatrix result="colorOut" in="blurOut" values="0 0 0 0 0 0 0 0 0 0 0 0 0 0 0 0 0 0 0.16862745098039217 0"/><feBlend in="SourceGraphic" in2="colorOut"/></filter><path fill="#3d4752" d="M33 0v-248h34V0H33" id="G"/><path fill="#3d4752" d="M115-194c55 1 70 41 70 98S169 2 115 4C84 4 66-9 55-30l1 105H24l-1-265h31l2 30c10-21 28-34 59-34zm-8 174c40 0 45-34 45-75s-6-73-45-74c-42 0-51 32-51 76 0 43 10 73 51 73" id="H"/><path fill="#3d4752" d="M84 4C-5 8 30-112 23-190h32v120c0 31 7 50 39 49 72-2 45-101 50-169h31l1 190h-30c-1-10 1-25-2-33-11 22-28 36-60 37" id="I"/><g id="f"><use transform="matrix(0.07407407407407408,0,0,0.07407407407407408,0,0)" xlink:href="#G"/><use transform="matrix(0.07407407407407408,0,0,0.07407407407407408,7.407407407407408,0)" xlink:href="#B"/><use transform="matrix(0.07407407407407408,0,0,0.07407407407407408,22.222222222222225,0)" xlink:href="#H"/><use transform="matrix(0.07407407407407408,0,0,0.07407407407407408,37.03703703703704,0)" xlink:href="#I"/><use transform="matrix(0.07407407407407408,0,0,0.07407407407407408,51.85185185185186,0)" xlink:href="#C"/></g><path fill="#3d4752" d="M137 0h-34L2-248h35l83 218 83-218h36" id="J"/><g id="g"><use transform="matrix(0.07407407407407408,0,0,0.07407407407407408,0,0)" xlink:href="#J"/><use transform="matrix(0.07407407407407408,0,0,0.07407407407407408,15.777777777777779,0)" xlink:href="#E"/><use transform="matrix(0.07407407407407408,0,0,0.07407407407407408,30.592592592592595,0)" xlink:href="#z"/><use transform="matrix(0.07407407407407408,0,0,0.07407407407407408,36.44444444444445,0)" xlink:href="#I"/><use transform="matrix(0.07407407407407408,0,0,0.07407407407407408,51.25925925925927,0)" xlink:href="#y"/><use transform="matrix(0.07407407407407408,0,0,0.07407407407407408,66.07407407407408,0)" xlink:href="#F"/></g><filter id="e" filterUnits="objectBoundingBox" x="-.06" y="-.04" width="1.11" height="1.21"><feOffset result="offOut" in="SourceAlpha" dy="6"/><feGaussianBlur result="blurOut" in="offOut" stdDeviation="5"/><feColorMatrix result="colorOut" in="blurOut" values="0 0 0 0 0 0 0 0 0 0 0 0 0 0 0 0 0 0 0.16862745098039217 0"/><feBlend in="SourceGraphic" in2="colorOut"/></filter><path fill="#3d4752" d="M30-248c87 1 191-15 191 75 0 78-77 80-158 76V0H30v-248zm33 125c57 0 124 11 124-50 0-59-68-47-124-48v98" id="K"/><g id="i"><use transform="matrix(0.07407407407407408,0,0,0.07407407407407408,0,0)" xlink:href="#K"/><use transform="matrix(0.07407407407407408,0,0,0.07407407407407408,17.77777777777778,0)" xlink:href="#D"/><use transform="matrix(0.07407407407407408,0,0,0.07407407407407408,26.592592592592595,0)" xlink:href="#y"/></g><filter id="h" filterUnits="objectBoundingBox" x="-.06" y="-.04" width="1.12" height="1.21"><feOffset result="offOut" in="SourceAlpha" dy="6"/><feGaussianBlur result="blurOut" in="offOut" stdDeviation="5"/><feColorMatrix result="colorOut" in="blurOut" values="0 0 0 0 0 0 0 0 0 0 0 0 0 0 0 0 0 0 0.16862745098039217 0"/><feBlend in="SourceGraphic" in2="colorOut"/></filter><path fill="#3d4752" d="M127-220V0H93v-220H8v-28h204v28h-85" id="L"/><path fill="#3d4752" d="M179-190L93 31C79 59 56 82 12 73V49c39 6 53-20 64-50L1-190h34L92-34l54-156h33" id="M"/><path fill="#3d4752" d="M96-169c-40 0-48 33-48 73s9 75 48 75c24 0 41-14 43-38l32 2c-6 37-31 61-74 61-59 0-76-41-82-99-10-93 101-131 147-64 4 7 5 14 7 22l-32 3c-4-21-16-35-41-35" id="N"/><g id="k"><use transform="matrix(0.07407407407407408,0,0,0.07407407407407408,0,0)" xlink:href="#L"/><use transform="matrix(0.07407407407407408,0,0,0.07407407407407408,14.740740740740744,0)" xlink:href="#M"/><use transform="matrix(0.07407407407407408,0,0,0.07407407407407408,28.074074074074076,0)" xlink:href="#H"/><use transform="matrix(0.07407407407407408,0,0,0.07407407407407408,42.8888888888889,0)" xlink:href="#y"/><use transform="matrix(0.07407407407407408,0,0,0.07407407407407408,57.70370370370372,0)" xlink:href="#N"/><use transform="matrix(0.07407407407407408,0,0,0.07407407407407408,71.03703703703705,0)" xlink:href="#E"/><use transform="matrix(0.07407407407407408,0,0,0.07407407407407408,85.85185185185188,0)" xlink:href="#F"/><use transform="matrix(0.07407407407407408,0,0,0.07407407407407408,99.18518518518522,0)" xlink:href="#C"/></g><filter id="j" filterUnits="objectBoundingBox" x="-.05" y="-.04" width="1.1" height="1.21"><feOffset result="offOut" in="SourceAlpha" dy="6"/><feGaussianBlur result="blurOut" in="offOut" stdDeviation="5"/><feColorMatrix result="colorOut" in="blurOut" values="0 0 0 0 0 0 0 0 0 0 0 0 0 0 0 0 0 0 0.16862745098039217 0"/><feBlend in="SourceGraphic" in2="colorOut"/></filter><g id="l"><use transform="matrix(0.07407407407407408,0,0,0.07407407407407408,0,0)" xlink:href="#J"/><use transform="matrix(0.07407407407407408,0,0,0.07407407407407408,15.777777777777779,0)" xlink:href="#E"/><use transform="matrix(0.07407407407407408,0,0,0.07407407407407408,30.592592592592595,0)" xlink:href="#z"/><use transform="matrix(0.07407407407407408,0,0,0.07407407407407408,36.44444444444445,0)" xlink:href="#x"/><use transform="matrix(0.07407407407407408,0,0,0.07407407407407408,42.296296296296305,0)" xlink:href="#A"/><use transform="matrix(0.07407407407407408,0,0,0.07407407407407408,57.11111111111112,0)" xlink:href="#E"/><use transform="matrix(0.07407407407407408,0,0,0.07407407407407408,71.92592592592594,0)" xlink:href="#C"/><use transform="matrix(0.07407407407407408,0,0,0.07407407407407408,79.33333333333334,0)" xlink:href="#y"/></g><path fill="#3d4752" d="M100-194c62-1 85 37 85 99 1 63-27 99-86 99S16-35 15-95c0-66 28-99 85-99zM99-20c44 1 53-31 53-75 0-43-8-75-51-75s-53 32-53 75 10 74 51 75" id="O"/><g id="m"><use transform="matrix(0.07407407407407408,0,0,0.07407407407407408,0,0)" xlink:href="#K"/><use transform="matrix(0.07407407407407408,0,0,0.07407407407407408,17.77777777777778,0)" xlink:href="#O"/><use transform="matrix(0.07407407407407408,0,0,0.07407407407407408,32.592592592592595,0)" xlink:href="#F"/><use transform="matrix(0.07407407407407408,0,0,0.07407407407407408,45.92592592592593,0)" xlink:href="#C"/></g><path fill="#3d4752" d="M212-179c-10-28-35-45-73-45-59 0-87 40-87 99 0 60 29 101 89 101 43 0 62-24 78-52l27 14C228-24 195 4 139 4 59 4 22-46 18-125c-6-104 99-153 187-111 19 9 31 26 39 46" id="P"/><g id="n"><use transform="matrix(0.07407407407407408,0,0,0.07407407407407408,0,0)" xlink:href="#P"/><use transform="matrix(0.07407407407407408,0,0,0.07407407407407408,19.185185185185187,0)" xlink:href="#z"/><use transform="matrix(0.07407407407407408,0,0,0.07407407407407408,25.037037037037035,0)" xlink:href="#y"/><use transform="matrix(0.07407407407407408,0,0,0.07407407407407408,39.851851851851855,0)" xlink:href="#E"/><use transform="matrix(0.07407407407407408,0,0,0.07407407407407408,54.66666666666667,0)" xlink:href="#B"/></g><path fill="#3d4752" d="M233-177c-1 41-23 64-60 70L243 0h-38l-65-103H63V0H30v-248c88 3 205-21 203 71zM63-129c60-2 137 13 137-47 0-61-80-42-137-45v92" id="Q"/><g id="o"><use transform="matrix(0.07407407407407408,0,0,0.07407407407407408,0,0)" xlink:href="#Q"/><use transform="matrix(0.07407407407407408,0,0,0.07407407407407408,19.185185185185187,0)" xlink:href="#y"/><use transform="matrix(0.07407407407407408,0,0,0.07407407407407408,34,0)" xlink:href="#C"/><use transform="matrix(0.07407407407407408,0,0,0.07407407407407408,41.407407407407405,0)" xlink:href="#I"/><use transform="matrix(0.07407407407407408,0,0,0.07407407407407408,56.22222222222222,0)" xlink:href="#D"/><use transform="matrix(0.07407407407407408,0,0,0.07407407407407408,65.03703703703704,0)" xlink:href="#B"/></g><g id="p"><use transform="matrix(0.07407407407407408,0,0,0.07407407407407408,0,0)" xlink:href="#J"/><use transform="matrix(0.07407407407407408,0,0,0.07407407407407408,15.777777777777779,0)" xlink:href="#E"/><use transform="matrix(0.07407407407407408,0,0,0.07407407407407408,30.592592592592595,0)" xlink:href="#z"/><use transform="matrix(0.07407407407407408,0,0,0.07407407407407408,36.44444444444445,0)" xlink:href="#I"/><use transform="matrix(0.07407407407407408,0,0,0.07407407407407408,51.25925925925927,0)" xlink:href="#y"/></g><g id="r"><use transform="matrix(0.06790123456790124,0,0,0.06790123456790124,0,0)" xlink:href="#J"/><use transform="matrix(0.06790123456790124,0,0,0.06790123456790124,14.462962962962964,0)" xlink:href="#E"/><use transform="matrix(0.06790123456790124,0,0,0.06790123456790124,28.043209876543212,0)" xlink:href="#z"/><use transform="matrix(0.06790123456790124,0,0,0.06790123456790124,33.40740740740741,0)" xlink:href="#x"/><use transform="matrix(0.06790123456790124,0,0,0.06790123456790124,38.77160493827161,0)" xlink:href="#A"/><use transform="matrix(0.06790123456790124,0,0,0.06790123456790124,52.351851851851855,0)" xlink:href="#E"/><use transform="matrix(0.06790123456790124,0,0,0.06790123456790124,65.9320987654321,0)" xlink:href="#C"/><use transform="matrix(0.06790123456790124,0,0,0.06790123456790124,72.72222222222223,0)" xlink:href="#O"/><use transform="matrix(0.06790123456790124,0,0,0.06790123456790124,86.30246913580248,0)" xlink:href="#D"/></g><path fill="#3d4752" d="M27 0v-27h64v-190l-56 39v-29l58-41h29v221h61V0H27" id="R"/><use transform="matrix(0.06790123456790124,0,0,0.06790123456790124,0,0)" xlink:href="#R" id="s"/><filter id="q" filterUnits="objectBoundingBox" x="-.06" y="-.07" width="1.12" height="1.33"><feOffset result="offOut" in="SourceAlpha" dy="6"/><feGaussianBlur result="blurOut" in="offOut" stdDeviation="5"/><feColorMatrix result="colorOut" in="blurOut" values="0 0 0 0 0 0 0 0 0 0 0 0 0 0 0 0 0 0 0.16862745098039217 0"/><feBlend in="SourceGraphic" in2="colorOut"/></filter><path fill="#3d4752" d="M101-251c82-7 93 87 43 132L82-64C71-53 59-42 53-27h129V0H18c2-99 128-94 128-182 0-28-16-43-45-43s-46 15-49 41l-32-3c6-41 34-60 81-64" id="S"/><use transform="matrix(0.06790123456790124,0,0,0.06790123456790124,0,0)" xlink:href="#S" id="t"/><path fill="#3d4752" d="M33 0v-38h34V0H33" id="T"/><g id="u"><use transform="matrix(0.06790123456790124,0,0,0.06790123456790124,0,0)" xlink:href="#T"/><use transform="matrix(0.06790123456790124,0,0,0.06790123456790124,6.790123456790124,0)" xlink:href="#T"/><use transform="matrix(0.06790123456790124,0,0,0.06790123456790124,13.580246913580249,0)" xlink:href="#T"/></g><g id="v"><use transform="matrix(0.06790123456790124,0,0,0.06790123456790124,0,0)" xlink:href="#y"/><use transform="matrix(0.06790123456790124,0,0,0.06790123456790124,13.580246913580249,0)" xlink:href="#C"/><use transform="matrix(0.06790123456790124,0,0,0.06790123456790124,20.370370370370374,0)" xlink:href="#N"/><use transform="matrix(0.06790123456790124,0,0,0.06790123456790124,32.592592592592595,0)" xlink:href="#T"/></g></defs></g></svg>