<svg xmlns="http://www.w3.org/2000/svg" xmlns:xlink="http://www.w3.org/1999/xlink" xmlns:lucid="lucid" width="947.33" height="410.67"><g transform="translate(-160 -80)" lucid:page-tab-id="0_0"><path d="M720 220h367.33v125.33H720z" fill="none"/><use xlink:href="#a" transform="matrix(1,0,0,1,720,220) translate(5 45.042578125000006)"/><use xlink:href="#b" transform="matrix(1,0,0,1,720,220) translate(77.24609375 45.042578125000006)"/><use xlink:href="#c" transform="matrix(1,0,0,1,720,220) translate(5 71.523828125)"/><use xlink:href="#d" transform="matrix(1,0,0,1,720,220) translate(53.1640625 71.523828125)"/><use xlink:href="#e" transform="matrix(1,0,0,1,720,220) translate(113.369140625 71.523828125)"/><use xlink:href="#f" transform="matrix(1,0,0,1,720,220) translate(137.451171875 71.523828125)"/><use xlink:href="#c" transform="matrix(1,0,0,1,720,220) translate(5 98.00507812500001)"/><use xlink:href="#g" transform="matrix(1,0,0,1,720,220) translate(53.1640625 98.00507812500001)"/><use xlink:href="#e" transform="matrix(1,0,0,1,720,220) translate(113.369140625 98.00507812500001)"/><use xlink:href="#h" transform="matrix(1,0,0,1,720,220) translate(137.451171875 98.00507812500001)"/><path d="M220 100h60v60h-60z" fill="none"/><use xlink:href="#i" transform="matrix(1,0,0,1,220,100) translate(-4.359259259259268 45.866666666666674)"/><path d="M180 160h140v104H180z" fill="#fff"/><path d="M180 232h140v32H180z" fill="#e6e6e6"/><path d="M180 160h140v40H180z" fill="#ccc"/><path d="M180 160h140v104H180zM180 200h140" stroke="#666" fill="none"/><use xlink:href="#j" transform="matrix(1,0,0,1,185,202.5) translate(0 17.1)"/><use xlink:href="#k" transform="matrix(1,0,0,1,185,234.5) translate(0 17.1)"/><path d="M180 160.1h140v40H180z" stroke="#666" fill="#ffb781"/><use xlink:href="#l" transform="matrix(1,0,0,1,184.8,164.8978731853532) translate(0 19.359722222222224)"/><use xlink:href="#m" transform="matrix(1,0,0,1,184.8,164.8978731853532) translate(39.45679012345679 19.359722222222224)"/><path d="M180 340h140v104H180z" fill="#fff"/><path d="M180 412h140v32H180z" fill="#e6e6e6"/><path d="M180 340h140v40H180z" fill="#ccc"/><path d="M180 340h140v104H180zM180 380h140" stroke="#666" fill="none"/><use xlink:href="#j" transform="matrix(1,0,0,1,185,382.5) translate(0 17.1)"/><use xlink:href="#k" transform="matrix(1,0,0,1,185,414.5) translate(0 17.1)"/><path d="M180 340.1h140v40H180z" stroke="#666" fill="#ffb781"/><use xlink:href="#n" transform="matrix(1,0,0,1,184.8,344.89787318535315) translate(0 19.359722222222224)"/><use xlink:href="#m" transform="matrix(1,0,0,1,184.8,344.89787318535315) translate(39.45679012345679 19.359722222222224)"/><path d="M440 236h200v104H440z" fill="#fff"/><path d="M440 308h200v32H440z" fill="#e6e6e6"/><path d="M440 236h200v40H440z" fill="#ccc"/><path d="M440 236h200v104H440zM440 276h200" stroke="#666" fill="none"/><use xlink:href="#o" transform="matrix(1,0,0,1,445,278.5) translate(0 17.1)"/><use xlink:href="#p" transform="matrix(1,0,0,1,445,310.5) translate(0 17.1)"/><use xlink:href="#q" transform="matrix(1,0,0,1,445,310.5) translate(38.95 17.1)"/><use xlink:href="#r" transform="matrix(1,0,0,1,445,310.5) translate(54.45 17.1)"/><use xlink:href="#s" transform="matrix(1,0,0,1,445,310.5) translate(65.4 17.1)"/><use xlink:href="#t" transform="matrix(1,0,0,1,445,310.5) translate(112.4 17.1)"/><use xlink:href="#u" transform="matrix(1,0,0,1,445,310.5) translate(154.4 17.1)"/><path d="M440 236h200v40H440z" stroke="#666" fill="#ffd1ae"/><use xlink:href="#v" transform="matrix(1,0,0,1,444.8,240.8) translate(0 19.359722222222224)"/><use xlink:href="#w" transform="matrix(1,0,0,1,444.8,240.8) translate(59.20987654320988 19.359722222222224)"/><path d="M340.5 179.77H368c6.63 0 12 5.37 12 12V312c0 6.63 5.37 12 12 12h31.12" stroke="#000" fill="none"/><path fill="#fff"/><path d="M341 189.77h-1v-20h1z"/><path fill="#fff"/><path d="M340.5 180.27h-20v-1h20zM437.88 324l-14.26 4.64v-9.28z"/><path d="M439.5 324l-16.38 5.32v-10.64zm-15.38 3.95l12.14-3.95-12.14-3.95z"/><path d="M340.5 359.77H368c6.63 0 12-5.37 12-12V336c0-6.63 5.37-12 12-12h31.12" stroke="#000" fill="none"/><path fill="#fff"/><path d="M341 369.77h-1v-20h1z"/><path fill="#fff"/><path d="M340.5 360.27h-20v-1h20zM437.88 324l-14.26 4.64v-9.28z"/><path d="M439.5 324l-16.38 5.32v-10.64zm-15.38 3.95l12.14-3.95-12.14-3.95z"/><path d="M500 160h60v60h-60z" fill="none"/><g><use xlink:href="#x" transform="matrix(1,0,0,1,500,160) translate(-4.359259259259268 45.866666666666674)"/></g><path d="M720 345.33h367.33v125.34H720z" fill="none"/><g><use xlink:href="#y" transform="matrix(1,0,0,1,720,345.33333333333303) translate(5 45.042578125000006)"/><use xlink:href="#z" transform="matrix(1,0,0,1,720,345.33333333333303) translate(77.24609375 45.042578125000006)"/><use xlink:href="#c" transform="matrix(1,0,0,1,720,345.33333333333303) translate(5 71.523828125)"/><use xlink:href="#A" transform="matrix(1,0,0,1,720,345.33333333333303) translate(53.1640625 71.523828125)"/><use xlink:href="#e" transform="matrix(1,0,0,1,720,345.33333333333303) translate(113.369140625 71.523828125)"/><use xlink:href="#f" transform="matrix(1,0,0,1,720,345.33333333333303) translate(137.451171875 71.523828125)"/><use xlink:href="#c" transform="matrix(1,0,0,1,720,345.33333333333303) translate(5 98.00507812500001)"/><use xlink:href="#B" transform="matrix(1,0,0,1,720,345.33333333333303) translate(53.1640625 98.00507812500001)"/><use xlink:href="#e" transform="matrix(1,0,0,1,720,345.33333333333303) translate(125.41015625 98.00507812500001)"/><use xlink:href="#C" transform="matrix(1,0,0,1,720,345.33333333333303) translate(149.4921875 98.00507812500001)"/></g><path d="M720 140.1h240v60H720z" stroke="#0c7cba" fill="#fff"/><g><use xlink:href="#D" transform="matrix(1,0,0,1,725,145.0978731853532) translate(28.104969618055563 30.815017361111114)"/><use xlink:href="#E" transform="matrix(1,0,0,1,725,145.0978731853532) translate(121.20392795138889 30.815017361111114)"/></g><defs><path d="M748-127c144 0 233-46 313-121v191C974-6 875 28 748 29c-351 3-553-232-553-588 0-357 202-591 553-588 129 2 222 35 313 86v193c-88-76-165-123-313-123-245 0-359 174-359 432 0 257 115 432 359 432" id="F"/><path d="M801 0C570 0 455-164 455-406v-1017H160v-144h479v1161c0 147 46 250 180 250h215V0H801" id="G"/><path d="M547-125c229-2 340-186 327-438H641c-189 0-321 55-324 225-3 137 91 215 230 213zm-332-944c167-71 431-115 615-37 106 45 186 120 213 246 11 49 16 123 16 221V0H874v-166C800-42 695 26 508 29c-220 3-378-138-375-355 4-274 199-382 494-381h247c6-204-80-285-282-284-149 1-272 46-377 106v-184" id="H"/><path d="M637-1147c132 1 237 25 336 66v180c-92-53-190-92-322-92-145 0-248 35-248 164 0 50 15 87 46 112 23 30 197 67 303 86 166 30 278 123 278 307 0 239-191 356-446 353-140-2-251-31-371-70v-190c114 58 228 103 375 106 145 3 253-56 256-188 3-87-90-149-253-179-210-38-374-93-374-319 0-232 173-338 420-336" id="I"/><g id="a"><use transform="matrix(0.009765625,0,0,0.009765625,0,0)" xlink:href="#F"/><use transform="matrix(0.009765625,0,0,0.009765625,12.041015625,0)" xlink:href="#G"/><use transform="matrix(0.009765625,0,0,0.009765625,24.08203125,0)" xlink:href="#H"/><use transform="matrix(0.009765625,0,0,0.009765625,36.123046875,0)" xlink:href="#I"/><use transform="matrix(0.009765625,0,0,0.009765625,48.1640625,0)" xlink:href="#I"/></g><path d="M840-1026c0-175-78-216-262-219H457v438h121c184-3 262-44 262-219zm307 0c0 361-195 464-580 467H457V0H162v-1493h405c385 4 580 106 580 467" id="J"/><path d="M698-203c169-2 281-50 404-121v269C974-3 842 28 670 29 296 31 92-181 92-555c0-348 195-592 533-592s528 218 524 563v119H390c3 185 114 264 308 262zm156-482c-2-151-77-235-229-235-144 1-220 97-232 236" id="K"/><path d="M924-1147c90 1 165 23 227 57v279c-80-87-287-118-417-55-120 58-150 157-150 350V0H291v-1120h293v174c52-120 173-201 340-201" id="L"/><path d="M618-1147c139 1 264 24 373 62v256c-94-60-205-105-344-105-109 0-192 22-198 113-5 55 86 104 225 133 223 47 396 118 393 371-3 255-179 346-455 346-156-1-293-29-422-70v-256c110 62 239 113 392 113 113 0 209-23 209-117 0-37-14-64-37-86-24-24-177-63-260-82-196-44-322-122-322-336 0-236 191-344 446-342" id="M"/><path d="M842-559c0-188-62-350-226-350-163 0-225 163-225 350s62 350 225 350c164 0 226-162 226-350zM616 29C289 29 98-219 98-559s191-588 518-588c328 0 519 248 519 588 0 341-191 588-519 588" id="N"/><path d="M750-1147c234 0 322 167 321 420V0H780v-682c-2-141-23-227-147-227-123 0-170 126-170 268V0H172v-1120h291v168c37-116 138-195 287-195" id="O"/><path d="M1112-1233H477v322h578v260H477V0H182v-1493h930v260" id="P"/><path d="M498-1147c88-2 180 65 192 139 40-85 96-139 209-139 97 0 164 33 201 100s55 205 55 416V0H915v-719c0-83-8-138-19-167-21-56-118-55-139 1-11 29-20 84-20 166V0H500v-719c0-82-9-137-20-166-21-56-118-57-139-1-11 29-19 84-19 167V0H82v-1120h213v116c28-79 103-141 203-143" id="Q"/><g id="b"><use transform="matrix(0.009765625,0,0,0.009765625,0,0)" xlink:href="#J"/><use transform="matrix(0.009765625,0,0,0.009765625,12.041015625,0)" xlink:href="#K"/><use transform="matrix(0.009765625,0,0,0.009765625,24.08203125,0)" xlink:href="#L"/><use transform="matrix(0.009765625,0,0,0.009765625,36.123046875,0)" xlink:href="#M"/><use transform="matrix(0.009765625,0,0,0.009765625,48.1640625,0)" xlink:href="#N"/><use transform="matrix(0.009765625,0,0,0.009765625,60.205078125,0)" xlink:href="#O"/><use transform="matrix(0.009765625,0,0,0.009765625,72.24609375,0)" xlink:href="#P"/><use transform="matrix(0.009765625,0,0,0.009765625,84.287109375,0)" xlink:href="#N"/><use transform="matrix(0.009765625,0,0,0.009765625,96.328125,0)" xlink:href="#L"/><use transform="matrix(0.009765625,0,0,0.009765625,108.369140625,0)" xlink:href="#Q"/></g><path d="M711-1147c253 0 340 178 340 453V0H866v-694c-1-183-51-293-219-293-189 0-268 148-268 354V0H195v-1120h184v168c60-118 165-195 332-195" id="R"/><path d="M471-1147c112 0 171 55 205 141 41-85 99-141 213-141 90 0 154 35 191 105s55 200 55 393V0H967v-641c0-158-12-256-27-295-31-81-176-72-206 4-17 42-29 138-29 291V0H537v-641c0-160-10-259-29-296s-53-56-102-56-83 20-102 61-28 138-28 291V0H109v-1120h167v96c38-70 97-123 195-123" id="S"/><path d="M651-1147c298 0 466 229 461 541v90H315c-4 242 129 392 365 389 156-2 268-51 389-113v183C949-8 828 27 678 29c-351 3-555-232-555-588 0-338 200-588 528-588zm277 487c-4-201-91-331-285-331-193 0-305 144-321 332" id="T"/><g id="d"><use transform="matrix(0.009765625,0,0,0.009765625,0,0)" xlink:href="#R"/><use transform="matrix(0.009765625,0,0,0.009765625,12.041015625,0)" xlink:href="#H"/><use transform="matrix(0.009765625,0,0,0.009765625,24.08203125,0)" xlink:href="#S"/><use transform="matrix(0.009765625,0,0,0.009765625,36.123046875,0)" xlink:href="#T"/></g><path d="M88-524h1057v172H88v-172zm0-406h1057v170H88v-170" id="U"/><use transform="matrix(0.009765625,0,0,0.009765625,0,0)" xlink:href="#U" id="e"/><path d="M47-1493h1139v170H719V0H516v-1323H47v-170" id="V"/><path d="M1118-1120L717-584 1157 0H944L616-449 289 0H76l440-584-401-536h204l297 405 295-405h207" id="W"/><path d="M807 0C529-4 430-92 430-369v-608H131v-143h299v-318h184v318h418v143H614v608c2 165 49 222 211 222h207V0H807" id="X"/><path d="M426-643c0-377 131-645 299-911h160c-153 264-264 539-264 911 0 371 112 648 264 913H725C557 0 426-263 426-643" id="Y"/><path d="M612-643c0-370-112-648-264-911h160c168 267 299 533 299 911 0 379-131 646-299 913H348C499 3 612-272 612-643" id="Z"/><g id="f"><use transform="matrix(0.009765625,0,0,0.009765625,0,0)" xlink:href="#V"/><use transform="matrix(0.009765625,0,0,0.009765625,12.041015625,0)" xlink:href="#T"/><use transform="matrix(0.009765625,0,0,0.009765625,24.08203125,0)" xlink:href="#W"/><use transform="matrix(0.009765625,0,0,0.009765625,36.123046875,0)" xlink:href="#X"/><use transform="matrix(0.009765625,0,0,0.009765625,48.1640625,0)" xlink:href="#Y"/><use transform="matrix(0.009765625,0,0,0.009765625,60.205078125,0)" xlink:href="#Z"/></g><path d="M915-1147c102 0 174 26 240 70v188c-71-55-140-88-254-88-243 0-354 165-354 420V0H362v-1120h185v219c55-146 178-246 368-246" id="aa"/><g id="g"><use transform="matrix(0.009765625,0,0,0.009765625,0,0)" xlink:href="#F"/><use transform="matrix(0.009765625,0,0,0.009765625,12.041015625,0)" xlink:href="#H"/><use transform="matrix(0.009765625,0,0,0.009765625,24.08203125,0)" xlink:href="#aa"/><use transform="matrix(0.009765625,0,0,0.009765625,36.123046875,0)" xlink:href="#I"/></g><path d="M233-1493h879v170H436v440h613v170H436V0H233v-1493" id="ab"/><path d="M616-991c-93 0-161 39-212 109-92 126-92 520 0 646 52 70 119 109 212 109 94 0 161-39 213-109 93-126 92-520 0-646-52-70-119-109-213-109zM137-559c0-353 146-588 479-588s480 235 480 588c0 355-145 588-480 588-334 0-479-234-479-588" id="ac"/><path d="M631-1520c144 2 262 34 381 78v205c-106-67-218-116-371-119-174-3-308 84-309 246 0 66 20 114 54 151 44 48 204 86 310 111 250 58 402 161 402 440 0 301-201 439-516 437-164-1-298-37-424-90v-215c130 81 244 137 424 141 187 4 323-84 323-260 0-181-93-224-262-262-271-61-502-123-504-422-2-273 211-447 492-441" id="ad"/><path d="M743-135c139 0 246-55 330-125v207C978-3 879 29 743 29c-415 0-604-328-604-774 0-244 53-435 159-571s255-204 445-204c135 1 236 32 330 82v207c-84-70-192-125-330-125-131 0-224 54-295 152-125 174-126 743 0 917 71 98 164 152 295 152" id="ae"/><g id="h"><use transform="matrix(0.009765625,0,0,0.009765625,0,0)" xlink:href="#ab"/><use transform="matrix(0.009765625,0,0,0.009765625,12.041015625,0)" xlink:href="#ac"/><use transform="matrix(0.009765625,0,0,0.009765625,24.08203125,0)" xlink:href="#aa"/><use transform="matrix(0.009765625,0,0,0.009765625,36.123046875,0)" xlink:href="#S"/><use transform="matrix(0.009765625,0,0,0.009765625,48.1640625,0)" xlink:href="#ad"/><use transform="matrix(0.009765625,0,0,0.009765625,60.205078125,0)" xlink:href="#T"/><use transform="matrix(0.009765625,0,0,0.009765625,72.24609375,0)" xlink:href="#X"/><use transform="matrix(0.009765625,0,0,0.009765625,84.287109375,0)" xlink:href="#Y"/><use transform="matrix(0.009765625,0,0,0.009765625,96.328125,0)" xlink:href="#ae"/><use transform="matrix(0.009765625,0,0,0.009765625,108.369140625,0)" xlink:href="#H"/><use transform="matrix(0.009765625,0,0,0.009765625,120.41015625,0)" xlink:href="#aa"/><use transform="matrix(0.009765625,0,0,0.009765625,132.451171875,0)" xlink:href="#Z"/></g><path fill="#0c7cba" d="M161-266c77 0 133 58 135 135C298-58 233 4 161 4S25-58 27-131c1-76 58-135 134-135zm0 15c-69 0-118 51-120 120C39-66 96-11 161-11s122-55 120-120c-2-69-50-120-120-120zM108-72h38v-113l-41 8v-27c23-4 44-10 73-8v140h39v25H108v-25" id="af"/><use transform="matrix(0.14814814814814817,0,0,0.14814814814814817,14.814814814814817,0)" xlink:href="#af" id="i"/><path d="M210-169c-67 3-38 105-44 169h-31v-121c0-29-5-50-35-48C34-165 62-65 56 0H25l-1-190h30c1 10-1 24 2 32 10-44 99-50 107 0 11-21 27-35 58-36 85-2 47 119 55 194h-31v-121c0-29-5-49-35-48" id="ag"/><path d="M141-36C126-15 110 5 73 4 37 3 15-17 15-53c-1-64 63-63 125-63 3-35-9-54-41-54-24 1-41 7-42 31l-33-3c5-37 33-52 76-52 45 0 72 20 72 64v82c-1 20 7 32 28 27v20c-31 9-61-2-59-35zM48-53c0 20 12 33 32 33 41-3 63-29 60-74-43 2-92-5-92 41" id="ah"/><path d="M143 0L79-87 56-68V0H24v-261h32v163l83-92h37l-77 82L181 0h-38" id="ai"/><path d="M100-194c63 0 86 42 84 106H49c0 40 14 67 53 68 26 1 43-12 49-29l28 8c-11 28-37 45-77 45C44 4 14-33 15-96c1-61 26-98 85-98zm52 81c6-60-76-77-97-28-3 7-6 17-6 28h103" id="aj"/><g id="j"><use transform="matrix(0.05,0,0,0.05,0,0)" xlink:href="#ag"/><use transform="matrix(0.05,0,0,0.05,14.950000000000001,0)" xlink:href="#ah"/><use transform="matrix(0.05,0,0,0.05,24.950000000000003,0)" xlink:href="#ai"/><use transform="matrix(0.05,0,0,0.05,33.95,0)" xlink:href="#aj"/></g><path d="M100-194c62-1 85 37 85 99 1 63-27 99-86 99S16-35 15-95c0-66 28-99 85-99zM99-20c44 1 53-31 53-75 0-43-8-75-51-75s-53 32-53 75 10 74 51 75" id="ak"/><path d="M85-194c31 0 48 13 60 33l-1-100h32l1 261h-30c-2-10 0-23-3-31C134-8 116 4 85 4 32 4 16-35 15-94c0-66 23-100 70-100zm9 24c-40 0-46 34-46 75 0 40 6 74 45 74 42 0 51-32 51-76 0-42-9-74-50-73" id="al"/><path d="M24 0v-261h32V0H24" id="am"/><g id="k"><use transform="matrix(0.05,0,0,0.05,0,0)" xlink:href="#ag"/><use transform="matrix(0.05,0,0,0.05,14.950000000000001,0)" xlink:href="#ak"/><use transform="matrix(0.05,0,0,0.05,24.950000000000003,0)" xlink:href="#al"/><use transform="matrix(0.05,0,0,0.05,34.95,0)" xlink:href="#aj"/><use transform="matrix(0.05,0,0,0.05,44.95,0)" xlink:href="#am"/></g><path d="M96-169c-40 0-48 33-48 73s9 75 48 75c24 0 41-14 43-38l32 2c-6 37-31 61-74 61-59 0-76-41-82-99-10-93 101-131 147-64 4 7 5 14 7 22l-32 3c-4-21-16-35-41-35" id="an"/><path d="M114-163C36-179 61-72 57 0H25l-1-190h30c1 12-1 29 2 39 6-27 23-49 58-41v29" id="ao"/><path d="M27 0v-27h64v-190l-56 39v-29l58-41h29v221h61V0H27" id="ap"/><g id="l"><use transform="matrix(0.04938271604938272,0,0,0.04938271604938272,0,0)" xlink:href="#an"/><use transform="matrix(0.04938271604938272,0,0,0.04938271604938272,8.88888888888889,0)" xlink:href="#ah"/><use transform="matrix(0.04938271604938272,0,0,0.04938271604938272,18.765432098765434,0)" xlink:href="#ao"/><use transform="matrix(0.04938271604938272,0,0,0.04938271604938272,24.641975308641978,0)" xlink:href="#ap"/></g><path d="M87 75C49 33 22-17 22-94c0-76 28-126 65-167h31c-38 41-64 92-64 168S80 34 118 75H87" id="aq"/><path d="M212-179c-10-28-35-45-73-45-59 0-87 40-87 99 0 60 29 101 89 101 43 0 62-24 78-52l27 14C228-24 195 4 139 4 59 4 22-46 18-125c-6-104 99-153 187-111 19 9 31 26 39 46" id="ar"/><path d="M33-261c38 41 65 92 65 168S71 34 33 75H2C39 34 66-17 66-93S39-220 2-261h31" id="as"/><g id="m"><use transform="matrix(0.04938271604938272,0,0,0.04938271604938272,0,0)" xlink:href="#aq"/><use transform="matrix(0.04938271604938272,0,0,0.04938271604938272,5.8765432098765435,0)" xlink:href="#ar"/><use transform="matrix(0.04938271604938272,0,0,0.04938271604938272,18.666666666666668,0)" xlink:href="#ah"/><use transform="matrix(0.04938271604938272,0,0,0.04938271604938272,28.543209876543212,0)" xlink:href="#ao"/><use transform="matrix(0.04938271604938272,0,0,0.04938271604938272,34.41975308641975,0)" xlink:href="#as"/></g><path d="M101-251c82-7 93 87 43 132L82-64C71-53 59-42 53-27h129V0H18c2-99 128-94 128-182 0-28-16-43-45-43s-46 15-49 41l-32-3c6-41 34-60 81-64" id="at"/><g id="n"><use transform="matrix(0.04938271604938272,0,0,0.04938271604938272,0,0)" xlink:href="#an"/><use transform="matrix(0.04938271604938272,0,0,0.04938271604938272,8.88888888888889,0)" xlink:href="#ah"/><use transform="matrix(0.04938271604938272,0,0,0.04938271604938272,18.765432098765434,0)" xlink:href="#ao"/><use transform="matrix(0.04938271604938272,0,0,0.04938271604938272,24.641975308641978,0)" xlink:href="#at"/></g><path d="M117-194c89-4 53 116 60 194h-32v-121c0-31-8-49-39-48C34-167 62-67 57 0H25l-1-190h30c1 10-1 24 2 32 11-22 29-35 61-36" id="au"/><g id="o"><use transform="matrix(0.05,0,0,0.05,0,0)" xlink:href="#au"/><use transform="matrix(0.05,0,0,0.05,10,0)" xlink:href="#ah"/><use transform="matrix(0.05,0,0,0.05,20,0)" xlink:href="#ag"/><use transform="matrix(0.05,0,0,0.05,34.95,0)" xlink:href="#aj"/></g><path d="M135-143c-3-34-86-38-87 0 15 53 115 12 119 90S17 21 10-45l28-5c4 36 97 45 98 0-10-56-113-15-118-90-4-57 82-63 122-42 12 7 21 19 24 35" id="av"/><g id="p"><use transform="matrix(0.05,0,0,0.05,0,0)" xlink:href="#an"/><use transform="matrix(0.05,0,0,0.05,9,0)" xlink:href="#ah"/><use transform="matrix(0.05,0,0,0.05,19,0)" xlink:href="#ao"/><use transform="matrix(0.05,0,0,0.05,24.95,0)" xlink:href="#av"/></g><path d="M18-150v-26h174v26H18zm0 90v-26h174v26H18" id="aw"/><use transform="matrix(0.05,0,0,0.05,0,0)" xlink:href="#aw" id="q"/><path d="M20 75v-336h95v34H67V41h48v34H20" id="ax"/><use transform="matrix(0.05,0,0,0.05,0,0)" xlink:href="#ax" id="r"/><path d="M190-63c-7 42-38 67-86 67-59 0-84-38-90-98-12-110 154-137 174-36l-49 2c-2-19-15-32-35-32-30 0-35 28-38 64-6 74 65 87 74 30" id="ay"/><path d="M133-34C117-15 103 5 69 4 32 3 11-16 11-54c-1-60 55-63 116-61 1-26-3-47-28-47-18 1-26 9-28 27l-52-2c7-38 36-58 82-57s74 22 75 68l1 82c-1 14 12 18 25 15v27c-30 8-71 5-69-32zm-48 3c29 0 43-24 42-57-32 0-66-3-65 30 0 17 8 27 23 27" id="az"/><path d="M135-150c-39-12-60 13-60 57V0H25l-1-190h47c2 13-1 29 3 40 6-28 27-53 61-41v41" id="aA"/><path d="M23 0v-37h61v-169l-59 37v-38l62-41h46v211h57V0H23" id="aB"/><path d="M76-54c-1 42 2 86-19 110H24C36 42 46 24 48 0H25v-54h51" id="aC"/><g id="s"><use transform="matrix(0.05,0,0,0.05,0,0)" xlink:href="#ay"/><use transform="matrix(0.05,0,0,0.05,10,0)" xlink:href="#az"/><use transform="matrix(0.05,0,0,0.05,20,0)" xlink:href="#aA"/><use transform="matrix(0.05,0,0,0.05,27,0)" xlink:href="#aB"/><use transform="matrix(0.05,0,0,0.05,37,0)" xlink:href="#aC"/></g><path d="M182-182c0 78-84 86-111 141h115V0H12c-6-101 99-100 120-180 1-22-12-31-33-32-23 0-32 14-35 34l-49-3c5-45 32-70 84-70 51 0 83 22 83 69" id="aD"/><g id="t"><use transform="matrix(0.05,0,0,0.05,0,0)" xlink:href="#ay"/><use transform="matrix(0.05,0,0,0.05,10,0)" xlink:href="#az"/><use transform="matrix(0.05,0,0,0.05,20,0)" xlink:href="#aA"/><use transform="matrix(0.05,0,0,0.05,27,0)" xlink:href="#aD"/></g><path d="M4 75V41h49v-268H4v-34h96V75H4" id="aE"/><use transform="matrix(0.05,0,0,0.05,0,0)" xlink:href="#aE" id="u"/><path d="M115-194c55 1 70 41 70 98S169 2 115 4C84 4 66-9 55-30l1 105H24l-1-265h31l2 30c10-21 28-34 59-34zm-8 174c40 0 45-34 45-75s-6-73-45-74c-42 0-51 32-51 76 0 43 10 73 51 73" id="aF"/><g id="v"><use transform="matrix(0.04938271604938272,0,0,0.04938271604938272,0,0)" xlink:href="#aF"/><use transform="matrix(0.04938271604938272,0,0,0.04938271604938272,9.876543209876544,0)" xlink:href="#aj"/><use transform="matrix(0.04938271604938272,0,0,0.04938271604938272,19.75308641975309,0)" xlink:href="#ao"/><use transform="matrix(0.04938271604938272,0,0,0.04938271604938272,25.629629629629633,0)" xlink:href="#av"/><use transform="matrix(0.04938271604938272,0,0,0.04938271604938272,34.51851851851852,0)" xlink:href="#ak"/><use transform="matrix(0.04938271604938272,0,0,0.04938271604938272,44.39506172839506,0)" xlink:href="#au"/></g><path d="M30-248c87 1 191-15 191 75 0 78-77 80-158 76V0H30v-248zm33 125c57 0 124 11 124-50 0-59-68-47-124-48v98" id="aG"/><g id="w"><use transform="matrix(0.04938271604938272,0,0,0.04938271604938272,0,0)" xlink:href="#aq"/><use transform="matrix(0.04938271604938272,0,0,0.04938271604938272,5.8765432098765435,0)" xlink:href="#aG"/><use transform="matrix(0.04938271604938272,0,0,0.04938271604938272,17.728395061728396,0)" xlink:href="#aj"/><use transform="matrix(0.04938271604938272,0,0,0.04938271604938272,27.60493827160494,0)" xlink:href="#ao"/><use transform="matrix(0.04938271604938272,0,0,0.04938271604938272,33.48148148148148,0)" xlink:href="#av"/><use transform="matrix(0.04938271604938272,0,0,0.04938271604938272,42.37037037037037,0)" xlink:href="#ak"/><use transform="matrix(0.04938271604938272,0,0,0.04938271604938272,52.246913580246904,0)" xlink:href="#au"/><use transform="matrix(0.04938271604938272,0,0,0.04938271604938272,62.12345679012345,0)" xlink:href="#as"/></g><path fill="#0c7cba" d="M161-266c77 0 133 58 135 135C298-58 233 4 161 4S25-58 27-131c1-76 58-135 134-135zm0 15c-69 0-118 51-120 120C39-66 96-11 161-11s122-55 120-120c-2-69-50-120-120-120zm-57 48c48-26 140-7 113 56-13 30-48 52-72 75h77v25H103v-23c21-28 77-55 85-95-5-38-59-25-84-8v-30" id="aH"/><use transform="matrix(0.14814814814814817,0,0,0.14814814814814817,14.814814814814817,0)" xlink:href="#aH" id="x"/><path d="M350-416c0 188 88 289 273 289 152 0 259-52 356-125L940-51C850-3 741 28 610 29c-296 1-458-150-454-445 4-330 170-576 402-682 178-81 438-51 579 37l-37 182c-79-68-158-112-291-112-251 0-365 167-427 365-22 70-32 141-32 210" id="aI"/><path d="M739 0C504 4 370-91 402-326c3-27 8-55 14-86l211-1011H311l29-144h500c-83 408-174 810-250 1221-24 130 47 190 176 190h211L946 0H739" id="aJ"/><path d="M264-307c-1 111 78 185 191 182 242-6 375-206 409-438-160 4-346-10-450 33-80 33-149 118-150 223zm430-840c255-4 429 129 387 393-41 257-96 503-143 754H754l32-166C704-58 580 26 408 29 214 33 70-88 72-276c4-287 260-437 573-431h246c6-37 17-64 16-108 1-193-253-199-429-151-66 18-136 43-210 77l35-180c123-44 243-76 391-78" id="aK"/><path d="M266-776c-2-303 335-419 657-354 54 11 105 27 154 49l-35 180c-82-52-184-90-305-92-158-1-280 54-288 194-4 69 100 128 243 160 160 36 305 88 305 264C997-59 646 85 302 12 243 0 181-18 115-41l37-190c105 59 212 103 354 106 153 4 294-74 301-211 4-71-96-128-224-158-170-39-316-90-317-282" id="aL"/><g id="y"><use transform="matrix(0.009765625,0,0,0.009765625,0,0)" xlink:href="#aI"/><use transform="matrix(0.009765625,0,0,0.009765625,12.041015625,0)" xlink:href="#aJ"/><use transform="matrix(0.009765625,0,0,0.009765625,24.08203125,0)" xlink:href="#aK"/><use transform="matrix(0.009765625,0,0,0.009765625,36.123046875,0)" xlink:href="#aL"/><use transform="matrix(0.009765625,0,0,0.009765625,48.1640625,0)" xlink:href="#aL"/></g><path d="M786-236c135 0 209-59 295-135v328C995 1 896 29 772 29c-434 0-620-312-620-774 0-463 185-775 620-775 122 0 225 27 309 72v328c-86-76-160-135-295-135-108 0-185 46-244 129-106 148-106 614 0 762 59 83 136 128 244 128" id="aM"/><path d="M573-174c177-3 250-155 244-352H700c-189 5-288 22-294 186-4 100 66 168 167 166zm41-973c376 0 494 126 494 508V0H817v-125C754-35 643 28 498 29 250 32 90-110 94-354c5-293 200-382 520-383h203c15-144-66-195-203-193-171 2-284 44-409 111v-250c121-50 246-78 409-78" id="aN"/><g id="z"><use transform="matrix(0.009765625,0,0,0.009765625,0,0)" xlink:href="#aM"/><use transform="matrix(0.009765625,0,0,0.009765625,12.041015625,0)" xlink:href="#aN"/><use transform="matrix(0.009765625,0,0,0.009765625,24.08203125,0)" xlink:href="#L"/><use transform="matrix(0.009765625,0,0,0.009765625,36.123046875,0)" xlink:href="#P"/><use transform="matrix(0.009765625,0,0,0.009765625,48.1640625,0)" xlink:href="#N"/><use transform="matrix(0.009765625,0,0,0.009765625,60.205078125,0)" xlink:href="#L"/><use transform="matrix(0.009765625,0,0,0.009765625,72.24609375,0)" xlink:href="#Q"/></g><path d="M236-1556h190v901l483-465h224L692-698 1202 0H977L563-578 426-449V0H236v-1556" id="aO"/><g id="A"><use transform="matrix(0.009765625,0,0,0.009765625,0,0)" xlink:href="#S"/><use transform="matrix(0.009765625,0,0,0.009765625,12.041015625,0)" xlink:href="#H"/><use transform="matrix(0.009765625,0,0,0.009765625,24.08203125,0)" xlink:href="#aO"/><use transform="matrix(0.009765625,0,0,0.009765625,36.123046875,0)" xlink:href="#T"/></g><path d="M559-1147c146 0 246 68 299 170v-579h184V0H858v-141C803-40 706 29 559 29c-300 0-436-264-436-592 0-325 139-584 436-584zM385-882c-81 129-87 521 0 646 49 70 112 109 201 109s152-39 202-110c89-127 83-514 0-645-88-139-315-140-403 0" id="aP"/><g id="B"><use transform="matrix(0.009765625,0,0,0.009765625,0,0)" xlink:href="#S"/><use transform="matrix(0.009765625,0,0,0.009765625,12.041015625,0)" xlink:href="#ac"/><use transform="matrix(0.009765625,0,0,0.009765625,24.08203125,0)" xlink:href="#aP"/><use transform="matrix(0.009765625,0,0,0.009765625,36.123046875,0)" xlink:href="#T"/><use transform="matrix(0.009765625,0,0,0.009765625,48.1640625,0)" xlink:href="#G"/></g><g id="C"><use transform="matrix(0.009765625,0,0,0.009765625,0,0)" xlink:href="#V"/><use transform="matrix(0.009765625,0,0,0.009765625,12.041015625,0)" xlink:href="#T"/><use transform="matrix(0.009765625,0,0,0.009765625,24.08203125,0)" xlink:href="#W"/><use transform="matrix(0.009765625,0,0,0.009765625,36.123046875,0)" xlink:href="#X"/><use transform="matrix(0.009765625,0,0,0.009765625,48.1640625,0)" xlink:href="#Y"/><use transform="matrix(0.009765625,0,0,0.009765625,60.205078125,0)" xlink:href="#Z"/></g><path fill="#0c7cba" d="M1732-1187c-58 13-106 21-144 47-5 5-7 10-8 15L1351-59c-18 57-86 74-146 89L864-877 577-59c-23 57-94 75-159 89L158-1117c-20-50-66-54-138-70v-73h489v73c-51 5-87 11-115 29-14 9-18 21-13 41l171 732 292-875h100l335 875 161-740c-5-38-54-40-91-50-19-5-40-8-63-12v-73h446v73" id="aQ"/><path fill="#0c7cba" d="M63-888c112-16 215-38 308-72h64v826c0 8 10 18 30 30s54 22 103 31V0H63v-73c45-9 79-20 100-31s32-21 32-30c-1-198 2-400-1-596-1-77-54-79-131-88v-70zm272-483c78 0 138 32 138 110 0 98-68 152-168 152-79 0-137-33-137-111 0-98 69-151 167-151" id="aR"/><path fill="#0c7cba" d="M480-153c90 0 143-40 212-75l44 73C647-91 572-44 511-14S401 30 366 30C216 30 155-87 155-244v-561H34L5-841l78-89h72v-209l202-149 38 33v325h305l36 36c-27 45-62 92-101 124-61-29-146-39-240-35v468c3 90 5 184 85 184" id="aS"/><path fill="#0c7cba" d="M814-960c151 0 221 99 221 256v570c8 28 38 30 68 42 17 7 39 12 65 19V0H663v-73c48-13 82-24 102-33s30-19 30-28v-439c-2-110-6-210-113-205-117 5-174 73-262 139v505c0 10 11 20 34 31s56 21 99 30V0H48v-73c44-11 77-22 99-31s33-19 33-30c-2-399 10-806-2-1200-2-63-65-55-130-66v-70c124-17 229-40 328-80l44 41v727c119-96 229-178 394-178" id="aT"/><path fill="#0c7cba" d="M547-95c182-3 211-159 211-345 0-159-46-293-136-363-28-21-59-32-93-32-183 0-211 174-211 362 0 156 53 282 142 349 28 20 56 29 87 29zm197-829c193 78 317 304 248 570C945-174 822-46 648 10 468 68 279-10 189-105 84-216 25-453 102-636c75-177 215-324 456-324 68 0 130 13 186 36" id="aU"/><path fill="#0c7cba" d="M618-902c125-11 230-32 335-58l37 46c1 227-3 457 1 682 1 43 7 81 55 72 14-3 39-12 73-27l25 75C1059-61 962 2 858 30c-84-6-95-83-108-166C647-55 571 30 408 30 227 30 155-88 155-279c-1-160 4-328-1-485-2-65-55-59-120-68v-70c123-10 226-26 326-58l35 46v572c2 110 10 203 116 199 111-4 169-63 239-119-2-165 6-340-4-499-4-64-57-67-128-71v-70" id="aV"/><g id="D"><use transform="matrix(0.01193576388888889,0,0,0.01193576388888889,0,0)" xlink:href="#aQ"/><use transform="matrix(0.01193576388888889,0,0,0.01193576388888889,20.780164930555557,0)" xlink:href="#aR"/><use transform="matrix(0.01193576388888889,0,0,0.01193576388888889,28.120659722222225,0)" xlink:href="#aS"/><use transform="matrix(0.01193576388888889,0,0,0.01193576388888889,37.16796875,0)" xlink:href="#aT"/><use transform="matrix(0.01193576388888889,0,0,0.01193576388888889,51.37152777777778,0)" xlink:href="#aU"/><use transform="matrix(0.01193576388888889,0,0,0.01193576388888889,64.20247395833334,0)" xlink:href="#aV"/><use transform="matrix(0.01193576388888889,0,0,0.01193576388888889,77.96440972222223,0)" xlink:href="#aS"/></g><path fill="#0c7cba" d="M700-696c-17-40-62-85-116-48-85 56-146 142-204 237-10 71-21 140-21 206 0 68 55 112 102 139 84 48 161-22 196-75 67-102 99-320 43-459zm-246-824c52 2 57 26 57 82 0 242-66 487-99 717 73-94 142-174 260-206 280-75 347 297 247 531C841-213 717-41 517 22c-72 23-136 33-203-4-92-50-200-129-200-258 0-357 115-688 139-1046 3-42-13-69-53-67-34 2-63 17-92 27l-17-69c107-48 234-103 363-125" id="aW"/><path fill="#0c7cba" d="M639-725c-32-28-72-69-124-69-166 0-214 176-243 330-21 112-9 246 54 294 48 37 71 7 126-43 40-36 82-93 131-165 17-114 36-237 56-347zm180 537c21 78 90 34 145 16l16 66C909-57 834-4 754 30 662 69 619-9 594-82c-10-31-18-69-21-116-62 83-131 169-225 218-92 48-186-2-232-58-71-86-100-276-58-422 63-217 203-369 407-447 46-17 100-29 160-29 63 0 116 36 158 60 41-21 90-39 129-60l31 65c-79 45-83 180-102 281-24 126-57 275-22 402" id="aX"/><path fill="#0c7cba" d="M353 41C160 41 71-110 71-322c0-315 176-485 410-578 68-27 171-53 251-22 65 25 110 75 174 99-48 46-110 99-166 138-59 41-84-18-112-47-23-25-50-62-95-62-136 0-183 141-211 264-33 147-21 337 71 398 61 41 113 14 187-22 51-25 112-68 184-127 15 22 35 49 49 71C697-109 599-19 446 28c-32 10-63 13-93 13" id="aY"/><path fill="#0c7cba" d="M456-1520c56-8 59 46 59 103 0 312-85 596-127 888 87-65 201-146 280-211 28-23 45-42 52-55s2-22-13-27-42-7-81-6l-8-69c93-13 205-27 303-33 88-5 126 57 77 110-109 120-277 209-423 301 89 101 135 256 225 355 13 14 28 20 41 20 49-2 91-10 129-33l32 64C939-61 864-10 786 26c-94 43-144-37-182-94-83-124-137-294-224-410-16 118-36 233-40 355 0 26 1 45 5 58C277-32 181 7 114 41L71 3c59-383 135-782 181-1179 5-46 7-82 7-107 0-43-4-75-48-70-36 4-68 17-101 27l-18-69c109-44 236-108 364-125" id="aZ"/><path fill="#0c7cba" d="M380-936c68 2 45 107 41 170-2 28-8 61-12 88 53-87 101-154 169-208 46-37 109-66 176-40 47 19 90 56 138 76-42 61-80 141-127 198-7 8-13 12-17 12-73-8-106-125-187-52-115 103-178 276-209 466-9 55-13 110-11 163C272-32 181 7 115 41L75 3c43-224 105-457 105-703 0-38-5-69-41-67-35 2-64 14-95 24l-18-67c107-44 230-103 354-126" id="ba"/><path fill="#0c7cba" d="M566-645c25-72 0-179-81-151-87 30-130 110-167 190-22 48-34 106-37 171 105-48 182-84 246-148 21-21 32-42 39-62zm-41-281c169-43 341 43 293 225-41 157-182 222-325 295-57 29-127 56-208 85 13 84 39 159 97 193 60 35 93 9 172-25 55-24 121-71 202-136 20 16 34 48 46 71C681-117 583-19 428 28 258 80 131-18 78-142c-59-138-17-346 44-447 92-151 209-288 403-337" id="bb"/><path fill="#0c7cba" d="M601-740c-21-48-72-43-148-45l-68 592C352 49 228 232 88 370c-48 48-98 85-147 115l-41-85C51 300 115 84 141-139l75-646H76l-23-39 131-81h45c32-286 153-485 371-588 138-65 286 13 371 72 20 13 35 22 45 25-56 41-125 101-185 139-36 22-46 29-73 1-34-34-56-101-117-101-71 0-97 77-119 139-31 89-42 209-55 313h249l27 35c-37 46-92 97-142 130" id="bc"/><g id="E"><use transform="matrix(0.01193576388888889,0,0,0.01193576388888889,0,0)" xlink:href="#aW"/><use transform="matrix(0.01193576388888889,0,0,0.01193576388888889,12.174479166666668,0)" xlink:href="#aX"/><use transform="matrix(0.01193576388888889,0,0,0.01193576388888889,23.943142361111114,0)" xlink:href="#aY"/><use transform="matrix(0.01193576388888889,0,0,0.01193576388888889,34.363064236111114,0)" xlink:href="#aZ"/><use transform="matrix(0.01193576388888889,0,0,0.01193576388888889,46.34657118055556,0)" xlink:href="#ba"/><use transform="matrix(0.01193576388888889,0,0,0.01193576388888889,56.32486979166667,0)" xlink:href="#bb"/><use transform="matrix(0.01193576388888889,0,0,0.01193576388888889,66.64930555555556,0)" xlink:href="#bc"/></g></defs></g></svg>